<svg width="76" height="16" viewBox="0 0 76 16" fill="none" xmlns="http://www.w3.org/2000/svg">
<g id="logo-hotels">
<path id="Combined Shape" fill-rule="evenodd" clip-rule="evenodd" d="M11.3144 2.59369C11.3144 1.69782 12.0343 0.96598 12.9155 0.96598C13.7967 0.96598 14.5166 1.69782 14.529 2.59369V12.7638C14.529 13.6596 13.8091 14.3915 12.9279 14.3915C12.0467 14.3915 11.3268 13.6596 11.3268 12.7638V9.50833H7.318V12.7638C7.318 13.8868 6.42438 14.7953 5.31977 14.7953C4.21517 14.7953 3.32155 13.8868 3.32155 12.7638V2.1773C3.32155 1.05431 4.21517 0.145813 5.31977 0.145813C6.42438 0.145813 7.318 1.05431 7.318 2.1773V5.02896L11.3144 5.24346V2.59369ZM2.91198 2.18992C2.91198 1.86185 2.97404 1.54641 3.09815 1.25619C2.51482 1.6095 2.11765 2.25301 2.11765 2.99747V12.36C2.11765 13.2306 2.66375 13.9751 3.42084 14.2653C3.09815 13.8489 2.91198 13.3316 2.91198 12.7764V2.18992ZM10.9173 2.5937C10.9173 2.16468 11.0538 1.77353 11.2648 1.44546C10.607 1.64735 10.1105 2.26563 10.1105 2.99747V4.76398L10.9049 4.80184V2.5937H10.9173ZM10.0609 1.84924C9.83749 2.1773 9.71338 2.56846 9.71338 2.99747H9.70097V4.73875L8.90664 4.70089V3.40124C8.90664 2.6694 9.4031 2.05112 10.0609 1.84924ZM73.4579 4.57471C73.3834 4.57471 73.3338 4.51162 73.3338 4.44853V3.59051H73.098C73.0359 3.59051 72.9863 3.54004 72.9863 3.47695C72.9863 3.41386 73.0359 3.36339 73.098 3.36339H73.8178C73.8799 3.36339 73.9295 3.41386 73.9295 3.47695C73.9295 3.54004 73.8799 3.59051 73.8178 3.59051H73.582V4.44853C73.582 4.51162 73.5324 4.57471 73.4579 4.57471ZM75.2575 4.57471C75.1955 4.57471 75.1334 4.51162 75.1334 4.44853V3.70407L74.8231 4.52424C74.8107 4.54948 74.7859 4.57471 74.7611 4.57471C74.7363 4.57471 74.7114 4.54948 74.699 4.52424L74.3887 3.70407V4.44853C74.3887 4.51162 74.3391 4.57471 74.2646 4.57471C74.1902 4.57471 74.1405 4.51162 74.1405 4.44853V3.56528C74.1405 3.45172 74.2274 3.36339 74.3391 3.36339C74.426 3.36339 74.5004 3.41386 74.5253 3.50219L74.7611 4.12047L74.9969 3.50219C75.0217 3.42648 75.0962 3.36339 75.1831 3.36339C75.2948 3.36339 75.3816 3.45172 75.3816 3.56528V4.44853C75.3816 4.51162 75.3196 4.57471 75.2575 4.57471ZM8.91905 11.9562C8.91905 12.7007 9.4031 13.319 10.0733 13.5082C9.8499 13.1802 9.72579 12.789 9.72579 12.36V9.91211H8.93147V11.9562H8.91905ZM10.123 9.92472H10.9173H10.9297V12.7764C10.9297 13.2054 11.0538 13.5965 11.2772 13.9246C10.607 13.7353 10.123 13.1171 10.123 12.3726V9.92472ZM0.913757 3.81764C0.913757 3.07318 1.31092 2.42966 1.89425 2.07636C1.77014 2.35395 1.70808 2.6694 1.70808 2.99747V12.36C1.70808 12.7007 1.78255 13.0035 1.89425 13.2937C1.31092 12.9404 0.913757 12.2969 0.913757 11.5524V3.81764ZM26.7417 10.8711V7.85538H22.4226V10.8711C22.4226 11.1991 22.1619 11.4641 21.8516 11.4641C21.5289 11.4641 21.2559 11.1865 21.2559 10.8711V3.99429C21.2559 3.67884 21.5289 3.40124 21.8392 3.40124C22.1619 3.40124 22.4226 3.67884 22.4226 3.99429V6.79547H26.7417V3.99429C26.7417 3.67884 27.0023 3.40124 27.325 3.40124C27.6477 3.40124 27.9084 3.67884 27.9084 3.99429V10.8711C27.9084 11.1991 27.6477 11.4641 27.325 11.4641C27.0023 11.4767 26.7417 11.1991 26.7417 10.8711ZM28.7399 8.52413C28.7399 6.87118 29.8445 5.50844 31.5945 5.50844C33.3693 5.50844 34.4491 6.87118 34.4491 8.52413C34.4491 10.1897 33.3569 11.5524 31.5945 11.5524C29.8445 11.5524 28.7399 10.2023 28.7399 8.52413ZM33.3569 8.52413C33.3569 7.43899 32.7364 6.46741 31.5945 6.46741C30.4651 6.46741 29.8321 7.43899 29.8321 8.52413C29.8321 9.62189 30.4651 10.5935 31.5945 10.5935C32.7364 10.6061 33.3569 9.62189 33.3569 8.52413ZM43.348 8.38533C43.348 6.87118 42.2931 5.52106 40.5927 5.52106C38.942 5.52106 37.7505 6.85856 37.7505 8.53675C37.7505 9.03701 37.8446 9.49136 38.0162 9.88716C37.9994 9.90537 37.9823 9.92401 37.9649 9.94295C37.6946 10.2374 37.3562 10.6061 36.9686 10.6061C36.6087 10.6061 36.4225 10.3033 36.4225 9.89949V6.6062H37.1672C37.4278 6.6062 37.6388 6.3917 37.6388 6.12672C37.6388 5.87436 37.4278 5.65986 37.1672 5.65986H36.4225V4.56209C36.4225 4.25926 36.1867 4.01952 35.9013 4.01952C35.6034 4.01952 35.3676 4.25926 35.3676 4.56209V5.65986H34.8339C34.5857 5.65986 34.3623 5.87436 34.3623 6.12672C34.3623 6.3917 34.5857 6.6062 34.8339 6.6062H35.3676V10.1392C35.3676 11.0351 35.8268 11.5524 36.7204 11.5524C37.0555 11.5524 37.2913 11.502 37.5271 11.3884C37.8828 11.2131 38.3601 10.8475 38.4796 10.6221C39.0052 11.22 39.7788 11.5651 40.6796 11.5651C41.4367 11.5651 42.1069 11.3632 42.6654 10.9468C42.7771 10.8711 42.8516 10.7449 42.8516 10.5935C42.8516 10.3537 42.6654 10.1645 42.4296 10.1645C42.3303 10.1645 42.2558 10.1771 42.1938 10.2276C41.7718 10.543 41.2754 10.6944 40.7913 10.6944C39.6495 10.6944 38.9544 9.87425 38.8676 8.90267H42.7275C43.1246 8.90267 43.348 8.7134 43.348 8.38533ZM42.3179 8.10774H38.8551C38.9172 7.32543 39.4509 6.40432 40.5927 6.3917C41.7842 6.3917 42.2931 7.35066 42.3179 8.10774ZM44.0183 3.94382V10.9342C44.0183 11.237 44.2541 11.4767 44.5395 11.4767C44.825 11.4767 45.0732 11.237 45.0732 10.9342V3.94382C45.0732 3.6536 44.825 3.41386 44.5395 3.41386C44.2541 3.41386 44.0183 3.6536 44.0183 3.94382ZM45.7558 10.5304C45.7558 10.2654 45.9544 10.0635 46.2151 10.0635C46.3143 10.0635 46.4012 10.1014 46.4757 10.1518C46.9101 10.4799 47.4686 10.6944 48.0643 10.6944C48.8587 10.6944 49.2807 10.3664 49.2807 9.87425C49.2807 9.30644 48.6353 9.11717 47.9154 8.94052L47.9075 8.93864C46.9535 8.71193 45.8303 8.445 45.8303 7.21186C45.8303 6.29075 46.5998 5.50844 47.9899 5.50844C48.7718 5.50844 49.3924 5.74818 49.8764 6.10148C49.9757 6.18981 50.0626 6.30337 50.0626 6.45479C50.0626 6.69453 49.864 6.89642 49.6282 6.89642C49.5413 6.89642 49.4544 6.85856 49.3924 6.80809C49.0324 6.53049 48.536 6.36646 48.0023 6.36646C47.2824 6.36646 46.8356 6.65667 46.8356 7.11092C46.8356 7.61564 47.4438 7.77967 48.1512 7.94371C49.1317 8.17083 50.3108 8.44842 50.3108 9.76069C50.3108 10.7449 49.5165 11.5272 48.0271 11.5272C47.2452 11.5272 46.5378 11.3253 45.9668 10.8837C45.8303 10.8332 45.7558 10.6818 45.7558 10.5304ZM52.4083 10.7954C52.4083 10.3916 52.0732 10.0509 51.676 10.0509C51.2789 10.0509 50.9562 10.3916 50.9438 10.7954C50.9438 11.1991 51.2789 11.5398 51.676 11.5398C52.0732 11.5398 52.4083 11.1991 52.4083 10.7954ZM60.7487 5.50844C58.9987 5.50844 57.8941 6.87118 57.8941 8.52413C57.8941 8.61123 57.8971 8.69744 57.903 8.78263C57.8697 8.83942 57.836 8.89987 57.8042 8.95679L57.8041 8.95692L57.8041 8.95696C57.7736 9.01155 57.7449 9.06287 57.7203 9.10456C57.1122 10.0761 56.3675 10.6313 55.6104 10.6061C54.5058 10.5682 53.786 9.72284 53.786 8.53675C53.786 7.35066 54.4934 6.48002 55.6104 6.48002C56.0572 6.48002 56.4296 6.6062 56.7523 6.92165C56.8391 6.98474 56.9508 7.03521 57.075 7.03521C57.3356 7.03521 57.5466 6.82071 57.5466 6.54311C57.5466 6.41693 57.4721 6.27814 57.3852 6.18981C56.9508 5.78604 56.3923 5.52106 55.5856 5.52106C53.8728 5.52106 52.6938 6.80809 52.6689 8.52413C52.6689 10.2528 53.8356 11.5524 55.5484 11.5524C56.3675 11.5524 57.0377 11.2496 57.4969 10.7954C57.737 10.5513 57.9565 10.3211 58.1963 9.95425C58.6375 10.9071 59.5388 11.5524 60.7487 11.5524C62.5111 11.5524 63.6033 10.1897 63.6033 8.52413C63.6033 6.87118 62.5235 5.50844 60.7487 5.50844ZM60.7487 6.46741C61.8905 6.46741 62.5111 7.43899 62.5111 8.52413C62.5111 9.62189 61.8905 10.6061 60.7487 10.5935C59.6193 10.5935 58.9863 9.62189 58.9863 8.52413C58.9863 7.43899 59.6193 6.46741 60.7487 6.46741ZM72.3409 10.9342V7.24972C72.3409 6.10148 71.7948 5.52106 70.7274 5.50844C69.8958 5.50844 69.1263 6.03839 68.8036 6.58097C68.6299 5.96269 68.121 5.50844 67.2646 5.50844C66.4207 5.50844 65.676 6.1141 65.4402 6.46741V6.13934C65.4402 5.83651 65.2044 5.59677 64.9065 5.59677C64.6334 5.59677 64.3976 5.83651 64.3976 6.13934V10.9468C64.3976 11.237 64.6334 11.4767 64.9313 11.4767C65.2044 11.4767 65.4526 11.237 65.4526 10.9468V7.71658C65.7381 7.30019 66.2966 6.6062 66.8427 6.6062C67.5501 6.6062 67.8356 6.92165 67.8356 7.5904V10.9468C67.8356 11.237 68.0838 11.4767 68.3692 11.4767C68.6671 11.4767 68.9029 11.237 68.9029 10.9468V7.66611C69.1636 7.24972 69.7345 6.59358 70.3054 6.59358C70.988 6.59358 71.2859 6.90903 71.2859 7.57778V10.9342C71.2859 11.2244 71.5217 11.4641 71.8072 11.4641C72.0926 11.4641 72.3409 11.2244 72.3409 10.9342Z" fill="#EE2841"/>
</g>
</svg>
