<svg width="76" height="14" viewBox="0 0 76 14" fill="none" xmlns="http://www.w3.org/2000/svg">
<g id="logo-booking">
<path id="path4191" d="M30.06 1.56664C30.06 0.943243 30.5672 0.439026 31.1916 0.439026C31.818 0.439026 32.3272 0.943243 32.3272 1.56664C32.3272 2.18923 31.818 2.69397 31.1916 2.69397C30.5672 2.69397 30.06 2.18923 30.06 1.56664Z" fill="#273B7D"/>
<path id="path4193" d="M47.9474 9.06683C47.9474 8.44317 48.4544 7.93842 49.0787 7.93842C49.7049 7.93842 50.214 8.44317 50.214 9.06683C50.214 9.68888 49.7049 10.1942 49.0787 10.1942C48.4544 10.1942 47.9474 9.68888 47.9474 9.06683Z" fill="#499FDD"/>
<path id="path4195" fill-rule="evenodd" clip-rule="evenodd" d="M7.88904 6.71089C7.88904 4.67744 9.38815 3.20087 11.4538 3.20087C13.5272 3.20087 15.0326 4.67744 15.0326 6.71089C15.0326 8.74433 13.5272 10.2206 11.4538 10.2206C9.38815 10.2206 7.88904 8.74433 7.88904 6.71089ZM9.79893 6.71089C9.79893 7.81018 10.4774 8.57946 11.4538 8.57946C12.4501 8.57946 13.1218 7.82754 13.1218 6.71089C13.1218 5.61187 12.4358 4.84311 11.4538 4.84311C10.4774 4.84311 9.79893 5.61187 9.79893 6.71089Z" fill="#273B7D"/>
<path id="path4197" d="M27.8644 6.88642C27.7841 6.73652 27.692 6.6096 27.594 6.50886L27.5315 6.44313L27.5972 6.3806C27.692 6.28147 27.789 6.1639 27.8824 6.02763L29.7053 3.33927H27.4924L26.1228 5.44217C26.0453 5.55494 25.8887 5.61185 25.6544 5.61185H25.3422V1.63609C25.3422 0.840887 24.8428 0.732666 24.3034 0.732666H23.3798L23.3814 10.1172H25.3422V7.3022H25.5259C25.7494 7.3022 25.9017 7.32785 25.9714 7.44836L27.0531 9.47378C27.3553 10.0234 27.6564 10.1172 28.2229 10.1172H29.7255L28.6064 8.28071L27.8644 6.88642" fill="#273B7D"/>
<path id="path4199" d="M37.3835 3.18591C36.3861 3.18591 35.7497 3.62547 35.3931 3.99715L35.274 4.1166L35.232 3.95414C35.1272 3.55599 34.7741 3.33688 34.2427 3.33688H33.3639L33.3694 10.1148H35.3169V6.99093C35.3169 6.68551 35.3569 6.42045 35.4383 6.17863C35.6551 5.44674 36.2598 4.99169 37.0156 4.99169C37.6235 4.99169 37.861 5.30994 37.861 6.1324V9.08449C37.861 9.78645 38.1883 10.1148 38.8964 10.1148H39.8232L39.82 5.804C39.82 4.09121 38.978 3.18591 37.384 3.18591" fill="#273B7D"/>
<path id="path4201" d="M31.2175 3.33984H30.2944L30.3007 8.58056H30.3001V10.1165H31.2854C31.2978 10.1165 31.3077 10.1178 31.3201 10.1178L31.7791 10.1165H32.2359V10.1138H32.239L32.243 4.36886C32.243 3.67573 31.9089 3.33985 31.2181 3.33985" fill="#273B7D"/>
<path id="path4203" fill-rule="evenodd" clip-rule="evenodd" d="M15.5363 6.71089C15.5363 4.67744 17.0357 3.20087 19.1034 3.20087C21.1747 3.20087 22.6824 4.67744 22.6824 6.71089C22.6824 8.74433 21.1747 10.2206 19.1034 10.2206C17.0357 10.2206 15.5363 8.74433 15.5363 6.71089ZM17.4472 6.71089C17.4472 7.81018 18.1271 8.57946 19.1034 8.57946C20.0997 8.57946 20.7712 7.82754 20.7712 6.71089C20.7712 5.61187 20.0833 4.84311 19.1034 4.84311C18.1271 4.84311 17.4472 5.61187 17.4472 6.71089Z" fill="#273B7D"/>
<path id="path4225" fill-rule="evenodd" clip-rule="evenodd" d="M57.2813 6.71089C57.2813 4.67744 58.7808 3.20087 60.848 3.20087C62.9195 3.20087 64.427 4.67744 64.427 6.71089C64.427 8.74433 62.9195 10.2206 60.848 10.2206C58.7808 10.2206 57.2813 8.74433 57.2813 6.71089ZM59.1918 6.71089C59.1918 7.81018 59.8721 8.57946 60.848 8.57946C61.8445 8.57946 62.5163 7.82754 62.5163 6.71089C62.5163 5.61187 61.8281 4.84311 60.848 4.84311C59.8721 4.84311 59.1918 5.61187 59.1918 6.71089Z" fill="#499FDD"/>
<path id="path4227" fill-rule="evenodd" clip-rule="evenodd" d="M45.4813 3.73473C45.6238 3.46778 45.9082 3.32162 46.2778 3.32162H46.2781H47.1829L47.1758 9.53791C47.1758 11.908 45.2392 12.7503 43.5806 12.7503C42.775 12.7503 41.8837 12.5352 41.1991 12.1747L41.0636 12.1031L41.2823 11.5489L41.4369 11.1695C41.6044 10.7582 41.8465 10.6559 42.2598 10.7796C42.5762 10.8934 43.0494 11.019 43.5693 11.019C44.6391 11.019 45.2293 10.5196 45.2293 9.61433V9.42595L45.0789 9.53791C44.6906 9.82969 44.2006 9.97319 43.5806 9.97319C41.7655 9.97319 40.4969 8.56368 40.4969 6.5468C40.4969 4.52753 41.7229 3.17065 43.544 3.17065C44.4592 3.17065 45.0229 3.49076 45.3373 3.76064L45.4275 3.8384L45.4813 3.73473ZM42.4827 6.49603C42.4827 7.35964 42.8617 8.28123 43.9264 8.28123C44.5373 8.28123 45.2667 7.98277 45.2667 6.5599C45.2667 5.05125 44.4425 4.87543 43.8241 4.87543C42.5797 4.87543 42.4827 6.11553 42.4827 6.49603Z" fill="#273B7D"/>
<path id="path4243" fill-rule="evenodd" clip-rule="evenodd" d="M5.93897 5.14612L6.22556 5.30591L6.22516 5.30585C6.92087 5.69436 7.33481 6.45831 7.33481 7.35184C7.33481 9.01146 6.05408 10.083 4.06982 10.083L1.74086 10.0836C1.74047 10.0833 1.74007 10.0833 1.73948 10.0833C1.73889 10.0833 1.7381 10.0833 1.73691 10.083H0.802063V1.71059C0.807984 1.18232 1.2314 0.755328 1.7606 0.736084H1.99256V0.736676H4.02955C5.81454 0.736676 6.96785 1.68873 6.96785 3.16372C6.96785 4.1278 6.48009 4.68572 6.18916 4.93395L5.93897 5.14612ZM2.61555 3.42932V2.93445C2.61555 2.50131 2.8003 2.2953 3.20571 2.26884H4.01692C4.71263 2.26884 5.12933 2.68194 5.12933 3.37294C5.12933 3.89987 4.84409 4.51471 4.0425 4.51471H2.61555V3.42932ZM4.20088 8.5017L2.61555 8.50013V6.6198C2.61555 6.21792 2.77259 6.00896 3.11973 5.96087H4.20088C4.97254 5.96087 5.47111 6.44371 5.47166 7.22475C5.47111 8.02637 4.98493 8.5012 4.20088 8.50173V8.5017Z" fill="#273B7D"/>
<path id="path4245" d="M73.1266 3.20782C72.3185 3.20782 71.5374 3.58325 71.0359 4.21278L70.8948 4.39021L70.7841 4.19167C70.4234 3.53916 69.8026 3.20782 68.9393 3.20782C68.0341 3.20782 67.4269 3.70883 67.1449 4.00677L66.9604 4.20503L66.8894 3.94424C66.7864 3.56882 66.4495 3.362 65.9391 3.362H65.1206L65.1127 10.1138H66.9725V7.13335C66.9725 6.87229 67.0051 6.6139 67.071 6.34375C67.2488 5.62363 67.7367 4.84901 68.5568 4.92649C69.0626 4.97459 69.3096 5.36231 69.3096 6.11129V10.1138H71.1826V7.13335C71.1826 6.80709 71.2133 6.56286 71.2875 6.31783C71.4383 5.63032 71.9476 4.92543 72.7389 4.92543C73.3115 4.92543 73.5233 5.24714 73.5233 6.11129V9.12671C73.5233 9.80888 73.83 10.1138 74.5171 10.1138H75.3925L75.3941 5.80347C75.3941 4.08159 74.6299 3.20782 73.1262 3.20782" fill="#499FDD"/>
<path id="path4247" d="M56.2045 7.76953C56.1989 7.77619 55.3986 8.61337 54.3449 8.61337C53.385 8.61337 52.4151 8.02899 52.4151 6.72449C52.4151 5.59822 53.1671 4.81103 54.2434 4.81103C54.593 4.81103 54.9905 4.93528 55.0527 5.14423L55.0619 5.17951C55.2052 5.65327 55.6392 5.67865 55.7245 5.67865L56.7435 5.67968V4.79604C56.7435 3.63048 55.2491 3.20776 54.2434 3.20776C52.093 3.20776 50.5326 4.69316 50.5326 6.73862C50.5326 8.78329 52.076 10.2665 54.2041 10.2665C56.0504 10.2665 57.0545 9.06252 57.0639 9.05049L57.1175 8.98529L56.3106 7.65728L56.2045 7.76951" fill="#499FDD"/>
</g>
</svg>
