<svg width="61" height="18" viewBox="0 0 61 18" fill="none" xmlns="http://www.w3.org/2000/svg">
<g id="logo-expedia">
<path id="path22" d="M29.6024 13.8102H27.74C27.7317 13.8102 27.7267 13.8086 27.7217 13.8027L26.117 11.8464L24.5107 13.8027C24.5074 13.8086 24.5016 13.8102 24.4932 13.8102H23.002C22.9929 13.8102 22.9862 13.8061 22.9795 13.7961C22.977 13.7903 22.977 13.7794 22.9828 13.7728L25.3464 10.8748L23.0104 8.00439C23.0037 7.9944 23.0037 7.98607 23.0062 7.97691C23.0104 7.97192 23.0195 7.96359 23.027 7.96359H24.8902C24.8961 7.96359 24.9027 7.96692 24.9077 7.97525L26.3155 9.71684L27.7484 7.97442C27.7525 7.96692 27.7592 7.96359 27.7659 7.96359H29.2846C29.2938 7.96359 29.303 7.97192 29.3063 7.97691C29.3105 7.98607 29.3088 7.99606 29.303 8.00439L27.0853 10.6626L29.6182 13.7728C29.6249 13.7794 29.6274 13.7903 29.6224 13.7961C29.6182 13.8061 29.6099 13.8102 29.6024 13.8102Z" fill="#072F54"/>
<path id="path26" fill-rule="evenodd" clip-rule="evenodd" d="M42.3659 11.2638C42.3734 11.2638 42.3818 11.2597 42.386 11.253C42.3893 11.2347 42.4327 10.6519 42.4327 10.4014C42.4327 8.85207 41.3568 7.7257 39.6821 7.7257C37.8465 7.7257 36.5162 9.06103 36.5162 10.9C36.5162 12.739 37.8465 14.0743 39.6821 14.0743C40.3902 14.0743 41.2909 13.8171 42.1875 13.44C42.195 13.4375 42.2 13.4308 42.2016 13.42L42.2033 12.1113C42.2033 12.093 42.1858 12.078 42.1683 12.088C41.2042 12.6 40.522 12.8189 39.8798 12.8189C38.8364 12.8189 38.1917 12.2545 38.1033 11.2638H42.3659ZM38.1334 10.3622C38.2943 9.49393 38.8573 8.99443 39.6821 8.99443C40.426 8.99443 40.939 9.61131 40.939 10.3064V10.3622H38.1334Z" fill="#072F54"/>
<path id="path30" fill-rule="evenodd" clip-rule="evenodd" d="M50.2553 13.7863C50.2553 13.8013 50.2645 13.8104 50.2795 13.8104H51.8099C51.8224 13.8104 51.8324 13.8013 51.8324 13.7863V7.98792C51.8324 7.97626 51.8258 7.96711 51.8133 7.96461H50.2737C50.2637 7.96711 50.2553 7.97626 50.2553 7.98792V13.7863ZM50.0969 5.82425C50.0969 6.33874 50.5222 6.75665 51.0451 6.75665C51.5681 6.75665 51.9942 6.33874 51.9942 5.82425C51.9942 5.29478 51.5681 4.86604 51.0451 4.86604C50.5222 4.86604 50.0969 5.29478 50.0969 5.82425Z" fill="#072F54"/>
<path id="path34" fill-rule="evenodd" clip-rule="evenodd" d="M31.5032 7.96375C31.9636 7.80557 32.4023 7.72648 32.8368 7.72648C34.6841 7.72648 35.976 9.02185 35.976 10.875C35.976 12.8189 34.6183 14.0743 32.5199 14.0743C32.2188 14.0743 31.9069 14.0385 31.5291 13.9852L31.5299 16.8773C30.9795 17.2686 30.4124 17.4334 29.9495 17.4967V7.98789C29.9495 7.97457 29.9587 7.96375 29.9712 7.96375H31.5032ZM31.5291 12.8106C31.856 12.898 32.1404 12.9371 32.4181 12.9371C33.5983 12.9371 34.3614 12.1237 34.3614 10.865C34.3614 9.69784 33.645 8.91196 32.5774 8.91196C32.248 8.91196 31.9152 8.96941 31.5324 9.09095L31.5291 12.8106Z" fill="#072F54"/>
<path id="path38" fill-rule="evenodd" clip-rule="evenodd" d="M47.4761 7.92929V4.894C48.0324 4.4919 48.5878 4.33539 49.0565 4.27295V13.5395C48.5795 13.8767 48.0957 14.0448 47.6746 14.1248L47.6754 13.6011C47.0374 13.9291 46.4953 14.074 45.9157 14.074C44.2426 14.074 43.0266 12.757 43.0266 10.9404C43.0266 9.1156 44.4053 7.74198 46.2309 7.74198C46.6304 7.74198 47.0266 7.80109 47.4761 7.92929ZM46.165 12.8261C46.5678 12.8261 46.9965 12.707 47.4761 12.4556V9.13642C47.1091 8.97075 46.8072 8.89499 46.497 8.89499C45.3727 8.89499 44.6455 9.73498 44.6455 11.0337C44.6455 12.1559 45.2151 12.8261 46.165 12.8261Z" fill="#072F54"/>
<path id="path42" fill-rule="evenodd" clip-rule="evenodd" d="M58.6827 7.82957C58.7178 7.82957 58.7486 7.85788 58.7486 7.89368L58.7469 13.5372C58.2899 13.8652 57.8087 14.0384 57.4009 14.1249V13.379C56.8237 14.0417 56.2074 14.075 55.7262 14.075C53.9289 14.075 52.7212 12.8379 52.7212 10.9922C52.7212 9.16657 54.0707 7.74216 55.7921 7.74216C56.2749 7.74216 56.7645 7.85788 57.3391 8.10929H57.3708V7.89784C57.3708 7.86287 57.4017 7.83124 57.4384 7.83124L58.6827 7.82957ZM55.9497 12.8396C56.305 12.8396 56.7028 12.7114 57.1665 12.4441V9.24149C56.7412 9.01672 56.3942 8.90766 56.1081 8.90766C55.0406 8.90766 54.3225 9.76597 54.3225 11.0455C54.3225 12.1719 54.9322 12.8396 55.9497 12.8396Z" fill="#072F54"/>
<path id="path46" d="M18.7424 12.3594L22.6072 12.3577C22.5488 12.7889 22.4029 13.2934 22.0676 13.8079H18.7516H18.0911H18.0469C17.5548 13.8079 17.1503 13.4275 17.1019 12.9463C17.0994 12.9388 17.0969 12.9321 17.0961 12.9255V8.97443V5.31726C17.0969 5.31143 17.0994 5.3031 17.1019 5.29811C17.1503 4.81609 17.5548 4.43397 18.0469 4.43397C18.0627 4.43397 18.0777 4.43564 18.0911 4.43564L22.5989 4.4348C22.5397 4.86521 22.3937 5.38302 22.0593 5.89584L18.7424 5.89584V7.9671L22.0259 7.9671C22.0392 7.9671 22.0493 7.97626 22.0493 7.98958V9.42648C22.0493 9.43813 22.0392 9.44895 22.0259 9.44895H18.7424V12.3577V12.3594Z" fill="#072F54"/>
<path id="path50" fill-rule="evenodd" clip-rule="evenodd" d="M13.1789 13.2661C13.1789 12.8223 13.5134 12.5285 13.9045 12.5285C14.2906 12.5285 14.6268 12.8223 14.6268 13.2661C14.6268 13.709 14.2906 14.0012 13.9045 14.0012C13.4808 14.0012 13.1789 13.6856 13.1789 13.2661ZM13.2865 13.2661C13.2865 13.6307 13.5225 13.9287 13.9045 13.9287C14.2489 13.9287 14.5183 13.6573 14.5183 13.2661C14.5183 12.8756 14.2489 12.6034 13.9045 12.6034C13.5567 12.6034 13.2865 12.8756 13.2865 13.2661Z" fill="#072F54"/>
<path id="path54" fill-rule="evenodd" clip-rule="evenodd" d="M13.9288 12.8291C14.1389 12.8291 14.2474 12.904 14.2474 13.0797C14.2474 13.2379 14.1514 13.302 14.0188 13.3178L14.264 13.7007H14.1014L13.8754 13.3278H13.742V13.7007H13.5977V12.8291H13.9288ZM13.7311 12.9365V13.2054H13.8987C14.013 13.2054 14.1131 13.1946 14.1131 13.0622C14.1131 12.9507 14.0047 12.9365 13.9129 12.9365H13.7311Z" fill="#072F54"/>
<path id="path58" fill-rule="evenodd" clip-rule="evenodd" d="M59.2938 8.26631C59.2938 7.82258 59.6282 7.52871 60.0194 7.52871C60.4047 7.52871 60.74 7.82258 60.74 8.26631C60.74 8.70836 60.4047 9.0014 60.0194 9.0014C59.5949 9.0014 59.2938 8.68589 59.2938 8.26631ZM59.3997 8.26631C59.3997 8.63094 59.6374 8.92898 60.0194 8.92898C60.363 8.92898 60.6332 8.65758 60.6332 8.26631C60.6332 7.87586 60.363 7.60364 60.0194 7.60364C59.6708 7.60364 59.3997 7.87586 59.3997 8.26631Z" fill="#072F54"/>
<path id="path62" fill-rule="evenodd" clip-rule="evenodd" d="M60.0429 7.829C60.2531 7.829 60.3615 7.90392 60.3615 8.07958C60.3615 8.23775 60.2648 8.30269 60.133 8.31767L60.3774 8.70062H60.2156L59.9895 8.3285H59.8544V8.70062H59.7118V7.829H60.0429ZM59.8453 7.93722V8.20529H60.0137C60.1263 8.20529 60.2272 8.1953 60.2272 8.0621C60.2272 7.95054 60.1188 7.93722 60.0271 7.93722H59.8453Z" fill="#072F54"/>
<path id="path66" d="M8.91922 5.88874L8.63899 5.09703L6.26207 1.92604L6.68908 1.82031L10.7874 5.35677L13.1993 4.66829C13.4829 4.59503 13.8048 4.57921 14.05 4.58088C13.2919 2.94918 11.905 1.60969 10.0735 0.958672C6.45305 -0.329206 2.47233 1.5589 1.18462 5.17445C0.785968 6.2925 0.690891 7.44634 0.858527 8.54358L6.63654 6.53975L8.91922 5.88874Z" fill="#072F54"/>
<path id="path70" d="M14.3039 5.20589C14.0921 5.34325 13.781 5.52307 13.4724 5.62214L11.0554 6.31062L9.44247 11.4788L9.0238 11.6145L9.36408 7.66759L9.17392 6.84758L6.90876 7.49277L0.922245 8.89969C1.39596 11.1999 3.02728 13.2029 5.40504 14.0487C9.0263 15.3366 13.0054 13.4476 14.2931 9.83459C14.8485 8.27698 14.8127 6.65194 14.3039 5.20589Z" fill="#072F54"/>
<path id="path74" d="M9.17376 6.84807L9.36474 7.66725L9.02363 11.6141L9.44231 11.4784L11.0553 6.31111L13.4722 5.62263C13.7808 5.52357 14.0919 5.34208 14.3037 5.20638C14.2295 4.9941 14.1444 4.78514 14.0502 4.58118C13.805 4.57951 13.4831 4.59616 13.1995 4.66776L10.7876 5.3579L6.68841 1.81977L6.26223 1.92633L8.63832 5.09733L8.91938 5.8882L6.63587 6.54088L0.858694 8.54304C0.877042 8.66292 0.897892 8.78197 0.922079 8.90019L6.90942 7.49326L9.17376 6.84807Z" fill="#FBC108"/>
</g>
</svg>
