<svg width="47" height="19" viewBox="0 0 47 19" fill="none" xmlns="http://www.w3.org/2000/svg">
<g id="logo-agoda">
<path id="Shape" fill-rule="evenodd" clip-rule="evenodd" d="M16.2512 8.08081V3.54313C16.2512 3.17017 16.1892 2.92153 16.1273 2.67289C16.0034 2.42425 15.7556 2.29993 15.5078 2.36209C15.26 2.36209 15.0741 2.42425 15.0122 2.61073C14.8883 2.79721 14.8263 2.98369 14.8263 3.23233V3.41881C14.5785 3.10801 14.2688 2.79721 13.8971 2.61073C13.5254 2.42425 13.0917 2.36209 12.72 2.36209C12.3483 2.36209 12.0386 2.42425 11.7908 2.67289C11.481 2.79721 11.2332 2.98369 10.9854 3.23233C10.7376 3.48097 10.5518 3.79177 10.4279 4.16473C10.304 4.53769 10.242 4.97281 10.242 5.40793C10.242 5.96737 10.304 6.58897 10.5518 7.08625C10.7376 7.52137 11.0474 7.89433 11.4191 8.20513C11.8527 8.51593 12.2864 8.64025 12.782 8.64025C13.1537 8.64025 13.5254 8.57809 13.8971 8.39161C14.2688 8.20513 14.5166 7.95649 14.7644 7.64569C14.7024 8.14297 14.7024 8.51593 14.7024 8.76457V8.76457C14.6714 8.85781 14.6405 8.96659 14.6095 9.07537C14.5785 9.18415 14.5475 9.29293 14.5166 9.38617C14.3927 9.63481 14.2068 9.75913 14.021 9.88345C13.7112 10.0078 13.4015 10.0699 13.0917 10.0699C12.9678 10.0699 12.782 10.0699 12.5961 10.0078L12.2244 9.82129C12.1805 9.77725 12.1366 9.74101 12.0955 9.70705C12.0205 9.64513 11.9547 9.59077 11.9147 9.51049L11.6669 9.19969C11.481 9.01321 11.2952 8.88889 11.0474 8.88889C10.8615 8.88889 10.6757 8.95105 10.5518 9.07537C10.4279 9.13753 10.3659 9.32401 10.3659 9.51049C10.4279 9.82129 10.5518 10.0699 10.7376 10.2564C11.0474 10.5051 11.3571 10.6915 11.7288 10.8159C12.1625 11.0023 12.6581 11.0645 13.1537 11.0645C13.6493 11.0645 14.1449 11.0023 14.5785 10.9402C14.8883 10.8159 15.26 10.6294 15.5078 10.3807C15.7556 10.1321 15.9414 9.82129 16.0653 9.44833C16.1892 9.01321 16.2512 8.51593 16.2512 8.08081ZM12.1625 6.89977C11.8527 6.46465 11.6669 5.96737 11.7288 5.47009C11.6669 4.97281 11.8527 4.41337 12.1005 4.04041C12.3483 3.72961 12.72 3.54313 13.1537 3.54313C13.5873 3.54313 14.021 3.72961 14.2688 4.10257C14.5785 4.53769 14.7644 5.03497 14.7024 5.59441C14.7644 5.90521 14.6405 6.27817 14.5166 6.58897C14.3927 6.83761 14.2068 7.08625 13.959 7.21057C13.7112 7.33489 13.4634 7.39705 13.2156 7.39705C12.8439 7.39705 12.4103 7.21057 12.1625 6.89977Z" fill="#929091"/>
<path id="Shape_2" fill-rule="evenodd" clip-rule="evenodd" d="M25.9154 6.83757C26.1012 6.40245 26.1632 5.96733 26.1632 5.53221C26.1632 5.09709 26.1012 4.66197 25.8534 4.22685C25.7295 3.85389 25.4817 3.54309 25.2339 3.23229C24.9242 2.92149 24.6144 2.67285 24.2427 2.54853C23.4374 2.23773 22.5081 2.23773 21.7028 2.54853C21.3311 2.67285 20.9594 2.85933 20.7116 3.17013C20.4638 3.41877 20.216 3.79173 20.0921 4.16469C19.7823 5.03493 19.7823 5.96733 20.0921 6.77541C20.3399 7.52133 20.9594 8.14293 21.7028 8.45373C22.1364 8.64021 22.5701 8.70237 23.0037 8.70237C23.4374 8.70237 23.871 8.64021 24.3047 8.45373C24.6764 8.32941 25.0481 8.14293 25.2959 7.83213C25.5437 7.58349 25.7915 7.21053 25.9154 6.83757ZM24.1808 4.04037C24.4905 4.47549 24.6764 4.97277 24.6144 5.53221C24.6764 6.09165 24.4905 6.58893 24.1808 6.96189C23.933 7.33485 23.4993 7.52133 23.0657 7.52133C22.7559 7.52133 22.5081 7.45917 22.2603 7.27269C22.0125 7.14837 21.8267 6.89973 21.7028 6.58893C21.455 5.84301 21.455 5.09709 21.7028 4.41333C21.8267 4.16469 22.0125 3.91605 22.2603 3.72957C22.5081 3.54309 22.7559 3.48093 23.0657 3.48093C23.4993 3.48093 23.933 3.66741 24.1808 4.04037Z" fill="#929091"/>
<path id="Shape_3" fill-rule="evenodd" clip-rule="evenodd" d="M34.5884 7.70784V7.83216C34.5264 8.0808 34.5884 8.32944 34.7123 8.51592C34.8981 8.7024 35.084 8.76456 35.2698 8.76456C35.5176 8.76456 35.7035 8.64024 35.8274 8.51592C35.9513 8.32944 36.0132 8.0808 36.0132 7.83216V0.9324C36.0132 0.68376 35.9513 0.43512 35.8274 0.24864C35.7035 0.06216 35.4557 0 35.2698 0C35.022 0 34.8362 0.06216 34.7123 0.24864C34.5884 0.49728 34.5264 0.74592 34.5264 0.99456V3.29448C34.4525 3.23514 34.3821 3.17581 34.3127 3.11731C34.0913 2.93071 33.8802 2.7527 33.5972 2.61072C33.2255 2.42424 32.8538 2.36208 32.4821 2.36208C31.8006 2.36208 31.1192 2.67288 30.6236 3.17016C30.128 3.7296 29.8802 4.47552 29.8802 5.47008C29.8802 5.9052 29.9421 6.34032 30.066 6.77544C30.1899 7.1484 30.3758 7.52136 30.6236 7.83216C30.8094 8.14296 31.1192 8.32944 31.4289 8.51592C31.7387 8.7024 32.1104 8.76456 32.4821 8.76456C32.7918 8.76456 33.0396 8.7024 33.2874 8.64024L33.2874 8.64024C33.5352 8.51592 33.783 8.3916 33.9689 8.26728C34.1559 8.17342 34.3077 8.00869 34.4508 7.85335C34.4973 7.80295 34.5428 7.75353 34.5884 7.70784ZM31.6767 6.58896C31.5528 6.27816 31.4909 5.9052 31.4909 5.53224C31.4289 5.15928 31.4909 4.84848 31.6148 4.47552C31.7387 4.22688 31.9245 3.97824 32.2343 3.79176C32.4201 3.60528 32.7299 3.54312 32.9777 3.54312C33.2255 3.54312 33.4733 3.60528 33.7211 3.79176C33.9689 3.97824 34.1547 4.22688 34.2786 4.47552C34.4025 4.78632 34.4645 5.15928 34.4645 5.53224C34.4645 5.9052 34.4025 6.27816 34.2786 6.65112C34.1547 6.96192 33.9689 7.1484 33.7211 7.33488C33.4733 7.4592 33.2255 7.52136 32.9777 7.52136C32.7299 7.52136 32.4821 7.39704 32.2343 7.27272C31.9865 7.08624 31.8006 6.8376 31.6767 6.58896Z" fill="#929091"/>
<path id="Shape_4" fill-rule="evenodd" clip-rule="evenodd" d="M43.0136 8.5159C43.4472 8.32942 43.8189 8.08078 44.1287 7.83214C44.1987 7.92576 44.2598 8.01938 44.3189 8.10968C44.4166 8.25921 44.5084 8.39963 44.6243 8.5159C44.7482 8.70238 44.934 8.76454 45.1199 8.76454C45.3057 8.76454 45.4916 8.70238 45.6155 8.57806C45.8013 8.45374 45.8633 8.32942 45.8633 8.14294C45.8633 7.95646 45.8013 7.70782 45.7394 7.52134C45.6774 7.21054 45.6155 6.89974 45.6155 6.58894V4.7863C45.6155 4.28902 45.5535 3.79174 45.3677 3.35662C45.1818 3.04582 44.8721 2.73502 44.5004 2.6107C44.0048 2.42422 43.4472 2.36206 42.8897 2.36206C42.3321 2.36206 41.8365 2.42422 41.4648 2.6107C41.0931 2.73502 40.7834 2.9215 40.5356 3.2323C40.3497 3.48094 40.2258 3.72958 40.2258 4.04038C40.2258 4.22686 40.2878 4.35118 40.4117 4.4755C40.5356 4.59982 40.6595 4.66198 40.8453 4.66198C40.9692 4.66198 41.0931 4.59982 41.217 4.53766C41.3409 4.41334 41.4648 4.22686 41.5268 4.10254C41.6507 3.91606 41.8365 3.72958 42.0224 3.60526C42.2702 3.48094 42.5799 3.41878 42.8897 3.41878C43.3853 3.41878 43.695 3.5431 43.8189 3.72958C44.0048 4.04038 44.0667 4.35118 44.0667 4.66198C43.695 4.7863 43.4472 4.84846 43.1375 4.91062C42.8897 5.03494 42.518 5.0971 42.1463 5.15926L41.4029 5.28358C40.9692 5.34574 40.5975 5.59438 40.2878 5.90518C39.978 6.21598 39.8541 6.6511 39.8541 7.02406C39.8541 7.33486 39.9161 7.64566 40.1019 7.8943C40.2258 8.14294 40.4736 8.39158 40.7834 8.5159C41.0931 8.70238 41.4648 8.76454 41.8365 8.76454C42.2082 8.76454 42.6419 8.64022 43.0136 8.5159ZM43.209 5.81673C43.4882 5.76223 43.8004 5.70129 44.0667 5.59438L44.0048 5.84302C44.0667 6.27814 44.0048 6.6511 43.8189 7.02406C43.695 7.21054 43.5092 7.39702 43.2614 7.52134C42.9516 7.64566 42.7038 7.70782 42.3941 7.70782C42.1463 7.70782 41.8985 7.64566 41.7126 7.45918C41.5268 7.2727 41.4029 7.08622 41.4029 6.83758C41.4029 6.58894 41.5268 6.40246 41.6507 6.27814C41.7746 6.15382 41.9604 6.09166 42.1463 6.0295C42.2392 6.0295 42.3631 5.99842 42.518 5.95957C42.6729 5.92072 42.8587 5.8741 43.0755 5.84302C43.1189 5.83431 43.1635 5.82561 43.209 5.81673Z" fill="#929091"/>
<path id="Shape_5" fill-rule="evenodd" clip-rule="evenodd" d="M3.48947 8.5159C3.92312 8.32942 4.29482 8.08078 4.60457 7.83214C4.79042 8.08078 4.97627 8.32942 5.10017 8.5159C5.22407 8.70238 5.40992 8.76454 5.59577 8.76454C5.78162 8.76454 5.96747 8.70238 6.09137 8.57806C6.21527 8.45374 6.33917 8.32942 6.33917 8.14294C6.33917 7.95646 6.27722 7.70782 6.21527 7.52134C6.15332 7.21054 6.09137 6.89974 6.09137 6.58894V4.7863C6.09137 4.28902 6.02942 3.79174 5.84357 3.35662C5.65772 2.98366 5.34797 2.73502 4.97627 2.6107C4.48067 2.42422 3.92312 2.36206 3.36557 2.36206C2.80802 2.36206 2.31242 2.42422 1.87877 2.6107C1.50707 2.73502 1.19732 2.9215 0.949517 3.2323C0.763667 3.48094 0.639767 3.72958 0.639767 4.04038C0.639767 4.22686 0.701717 4.41334 0.825617 4.4755C0.949517 4.59982 1.07342 4.66198 1.25927 4.66198C1.38317 4.66198 1.50707 4.66198 1.63097 4.53766C1.69292 4.4755 1.81682 4.35118 1.94072 4.10254C2.06462 3.91606 2.25047 3.72958 2.49827 3.66742C2.74607 3.5431 3.05582 3.48094 3.36557 3.48094C3.79922 3.48094 4.10897 3.5431 4.23287 3.72958C4.41872 4.04038 4.48067 4.35118 4.48067 4.66198C4.2964 4.69896 4.11214 4.75793 3.94092 4.81273C3.82431 4.85005 3.71376 4.88544 3.61337 4.91062C3.36557 5.03494 2.99387 5.0971 2.62217 5.15926L1.87877 5.28358C1.44512 5.34574 1.07342 5.59438 0.763667 5.90518C0.453917 6.21598 0.330017 6.6511 0.330017 7.02406C0.330017 7.33486 0.391967 7.64566 0.577817 7.8943C0.701717 8.14294 0.949517 8.39158 1.25927 8.5159C1.56902 8.70238 1.94072 8.76454 2.31242 8.76454C2.68412 8.76454 3.11777 8.64022 3.48947 8.5159ZM3.68487 5.81673C3.96407 5.76223 4.27625 5.70129 4.54262 5.59438L4.48067 5.84302C4.54262 6.27814 4.48067 6.6511 4.29482 7.02406C4.17092 7.21054 3.98507 7.39702 3.73727 7.52134C3.42752 7.64566 3.17972 7.70782 2.86997 7.70782C2.62217 7.70782 2.37437 7.64566 2.18852 7.45918C2.00267 7.2727 1.87877 7.08622 1.87877 6.83758C1.87877 6.58894 2.00267 6.40246 2.12657 6.27814C2.25047 6.15382 2.43632 6.09166 2.62217 6.0295C2.80802 6.0295 3.11777 5.96734 3.55142 5.84302C3.5948 5.83431 3.6394 5.82561 3.68487 5.81673Z" fill="#929091"/>
<path id="Path" d="M3.30362 12.432C4.97627 12.432 6.27722 13.7995 6.27722 15.4157C6.27722 17.094 4.91432 18.3994 3.30362 18.3994C1.63097 18.3994 0.330017 17.0318 0.330017 15.4157C0.330017 13.7374 1.69292 12.432 3.30362 12.432Z" fill="#ED2A28"/>
<path id="Path_2" d="M13.2156 12.432C14.8883 12.432 16.1892 13.7995 16.1892 15.4157C16.1892 17.094 14.8263 18.3994 13.2156 18.3994C11.543 18.3994 10.242 17.0318 10.242 15.4157C10.242 13.7374 11.543 12.432 13.2156 12.432Z" fill="#F59E22"/>
<path id="Path_3" d="M23.0657 12.432C24.7383 12.432 26.0393 13.7995 26.0393 15.4157C26.0393 17.094 24.6764 18.3994 23.0657 18.3994C21.393 18.3994 20.0921 17.0318 20.0921 15.4157C20.0921 13.7374 21.455 12.432 23.0657 12.432Z" fill="#16AC5B"/>
<path id="Path_4" d="M32.9777 12.432C34.6503 12.432 35.9513 13.7995 35.9513 15.4157C35.9513 17.094 34.5884 18.3994 32.9777 18.3994C31.305 18.3994 30.0041 17.0318 30.0041 15.4157C30.0041 13.7374 31.305 12.432 32.9777 12.432Z" fill="#8252A1"/>
<path id="Path_5" d="M42.8897 12.432C44.5623 12.432 45.8633 13.7995 45.8633 15.4157C45.8633 17.094 44.5004 18.3994 42.8897 18.3994C41.217 18.3994 39.9161 17.0318 39.9161 15.4157C39.8541 13.7374 41.217 12.432 42.8897 12.432Z" fill="#347FC2"/>
</g>
</svg>
